<svg viewBox="0 0 800 800" xmlns="http://www.w3.org/2000/svg"><path d="M402.67633612055533,399.0959246454457 L402.67633617963554,399.09590083609794 M397.28773990467215,400.89212338407344 L397.28773984399515,400.8920992953206 M402.67633612055533,399.0959246454457 L403.0654829039968,399.2456354694083 M403.0654829039968,399.2456354694083 L403.38039387361755,399.4139044324988 M403.38039387361755,399.4139044324988 L403.61313522589154,399.596710403344 M403.61313522589154,399.596710403344 L403.75769230325494,399.7896500487075 M403.75769230325494,399.7896500487075 L403.8101435771124,399.9880366856308 M403.8101435771124,399.9880366856308 L403.7687929515214,400.18700937912814 M403.7687929515214,400.18700937912814 L403.63425005008276,400.3816498420963 M403.63425005008276,400.3816498420963 L403.40945622243635,400.56710494102543 M403.40945622243635,400.56710494102543 L403.09964816342256,400.7387120729855 M403.09964816342256,400.7387120729855 L402.71226009532785,400.89212338407344 M402.71226009532785,400.89212338407344 L402.25675952605496,401.0234243790271 M402.25675952605496,401.0234243790271 L401.74442308075174,401.12924433963616 M401.74442308075174,401.12924433963616 L401.188052006883,401.2068526713247 M401.188052006883,401.2068526713247 L400.6016401815491,401.25423906173444 M400.6016401815491,401.25423906173444 L400,401.27017263835285 M400,401.27017263835285 L399.39835981845084,401.25423906173444 M399.39835981845084,401.25423906173444 L398.811947993117,401.2068526713247 M398.811947993117,401.2068526713247 L398.25557691924826,401.12924433963616 M398.25557691924826,401.12924433963616 L397.7432404739451,401.0234243790271 M397.7432404739451,401.0234243790271 L397.28773990467215,400.89212338407344 M402.67633617963554,399.09590083609794 L403.0654829717431,399.24561163673184 M403.0654829717431,399.24561163673184 L403.3803939484173,399.4138805736106 M403.3803939484173,399.4138805736106 L403.61313530595015,399.5966865159902 M403.61313530595015,399.5966865159902 L403.7576923866363,399.78962613132205 M403.7576923866363,399.78962613132205 L403.8101436617823,399.9880127373788 M403.8101436617823,399.9880127373788 L403.768793035396,400.1869853999314 M403.768793035396,400.1869853999314 L403.63425013107985,400.3816258326411 M403.63425013107985,400.3816258326411 L403.40945629852774,400.56708090275146 M403.40945629852774,400.56708090275146 L403.0996482326875,400.73868800805474 M403.0996482326875,400.73868800805474 L402.71226015600485,400.89209929532046 M402.71226015600485,400.89209929532046 L402.25675957659064,401.0234002698916 M402.25675957659064,401.0234002698916 L401.74442311984507,401.1292202140777 M401.74442311984507,401.1292202140777 L401.18805203352304,401.2068285337242 M401.18805203352304,401.2068285337242 L400.6016401950446,401.25421491678213 M400.6016401950446,401.25421491678213 L400,401.2701484909287 M400,401.2701484909287 L399.3983598049554,401.25421491678213 M399.3983598049554,401.25421491678213 L398.81194796647696,401.2068285337242 M398.81194796647696,401.2068285337242 L398.25557688015493,401.1292202140777 M398.25557688015493,401.1292202140777 L397.74324042340936,401.0234002698916 M397.74324042340936,401.0234002698916 L397.28773984399515,400.8920992953206 M397.28773990467215,400.89212338407344 L396.9003518365774,400.7387120729855 M396.9003518365774,400.7387120729855 L396.59054377756365,400.56710494102543 M396.59054377756365,400.56710494102543 L396.3657499499172,400.3816498420963 M396.3657499499172,400.3816498420963 L396.2312070484786,400.18700937912814 M396.2312070484786,400.18700937912814 L396.1898564228876,399.9880366856308 M396.1898564228876,399.9880366856308 L396.24230769674506,399.7896500487075 M396.24230769674506,399.7896500487075 L396.38686477410846,399.596710403344 M396.38686477410846,399.596710403344 L396.6196061263824,399.4139044324988 M396.6196061263824,399.4139044324988 L396.9345170960033,399.2456354694083 M396.9345170960033,399.2456354694083 L397.32366387944467,399.0959246454457 M397.32366387944467,399.0959246454457 L397.777406671883,398.96832423829716 M397.777406671883,398.96832423829716 L398.28464078661153,398.8658427148633 M398.28464078661153,398.8658427148633 L398.8330643358526,398.7908838392073 M398.8330643358526,398.7908838392073 L399.4094614052293,398.7451985328428 M399.4094614052293,398.7451985328428 L400,398.7298511139203 M400,398.7298511139203 L400.5905385947707,398.7451985328428 M400.5905385947707,398.7451985328428 L401.16693566414733,398.7908838392073 M401.16693566414733,398.7908838392073 L401.71535921338847,398.8658427148633 M401.71535921338847,398.8658427148633 L402.222593328117,398.96832423829716 M402.222593328117,398.96832423829716 L402.67633612055533,399.0959246454457 M397.28773984399515,400.8920992953206 L396.9003517673125,400.73868800805474 M396.9003517673125,400.73868800805474 L396.59054370147226,400.56708090275146 M396.59054370147226,400.56708090275146 L396.3657498689201,400.3816258326411 M396.3657498689201,400.3816258326411 L396.2312069646039,400.1869853999314 M396.2312069646039,400.1869853999314 L396.1898563382177,399.9880127373788 M396.1898563382177,399.9880127373788 L396.2423076133637,399.78962613132205 M396.2423076133637,399.78962613132205 L396.38686469404985,399.5966865159902 M396.38686469404985,399.5966865159902 L396.61960605158265,399.4138805736106 M396.61960605158265,399.4138805736106 L396.93451702825683,399.24561163673184 M396.93451702825683,399.24561163673184 L397.3236638203644,399.09590083609794 M397.3236638203644,399.09590083609794 L397.7774066228659,398.9683004488387 M397.7774066228659,398.9683004488387 L398.28464074881,398.86581894138254 M398.28464074881,398.86581894138254 L398.8330643101512,398.7908600774155 M398.8330643101512,398.7908600774155 L399.4094613922273,398.745174778176 M399.4094613922273,398.745174778176 L400,398.72982736164715 M400,398.72982736164715 L400.5905386077727,398.745174778176 M400.5905386077727,398.745174778176 L401.1669356898488,398.7908600774155 M401.1669356898488,398.7908600774155 L401.71535925119,398.86581894138254 M401.71535925119,398.86581894138254 L402.2225933771341,398.9683004488387 M402.2225933771341,398.9683004488387 L402.67633617963554,399.09590083609794 M398.19586270444705,400.58941578414846 L398.19586266417616,400.5893917424083 M401.7881714787781,399.39197952603814 L401.7881715183394,399.3919556705647 M398.19586270444705,400.58941578414846 L397.8805866720032,400.4600855923177 M397.8805866720032,400.4600855923177 L397.6475992749977,400.3128354356437 M397.6475992749977,400.3128354356437 L397.50565287867823,400.1534222003689 M397.50565287867823,400.1534222003689 L397.45990428192505,399.9880366856308 M397.45990428192505,399.9880366856308 L397.5117626214561,399.8230562720696 M397.5117626214561,399.8230562720696 L397.65888865434414,399.66479667357504 M397.65888865434414,399.66479667357504 L397.89533705168026,399.5192730751662 M397.89533705168026,399.5192730751662 L398.2118285212219,399.39197952603814 M398.2118285212219,399.39197952603814 L398.59613518972253,399.287692635244 M398.59613518972253,399.287692635244 L399.03355954881937,399.2103054433568 M399.03355954881937,399.2103054433568 L399.5074880027451,399.1626951028209 M399.5074880027451,399.1626951028209 L400,399.14662670584863 M400,399.14662670584863 L400.49251199725495,399.1626951028209 M400.49251199725495,399.1626951028209 L400.96644045118063,399.2103054433568 M400.96644045118063,399.2103054433568 L401.4038648102774,399.287692635244 M401.4038648102774,399.287692635244 L401.7881714787781,399.39197952603814 M398.19586266417616,400.5893917424083 L397.88058662474003,400.46006157067256 M397.88058662474003,400.46006157067256 L397.64759922259606,400.31281143688483 M397.64759922259606,400.31281143688483 L397.50565282318024,400.1533982263946 M397.50565282318024,400.1533982263946 L397.45990422547845,399.9880127373788 M397.45990422547845,399.9880127373788 L397.51176256622966,399.8230323494857 M397.51176256622966,399.8230323494857 L397.6588886024443,399.664772775622 M397.6588886024443,399.664772775622 L397.89533700507275,399.5192491998692 M397.89533700507275,399.5192491998692 L398.2118284816606,399.3919556705647 M398.2118284816606,399.3919556705647 L398.59613515868773,399.2876687960153 M398.59613515868773,399.2876687960153 L399.03355952746693,399.21028161618494 M399.03355952746693,399.21028161618494 L399.50748799186744,399.1626712830677 M399.50748799186744,399.1626712830677 L400,399.1466028885994 M400,399.1466028885994 L400.49251200813256,399.1626712830677 M400.49251200813256,399.1626712830677 L400.96644047253307,399.21028161618494 M400.96644047253307,399.21028161618494 L401.40386484131227,399.2876687960153 M401.40386484131227,399.2876687960153 L401.7881715183394,399.3919556705647 M401.7881714787781,399.39197952603814 L402.10466294831974,399.5192730751662 M402.10466294831974,399.5192730751662 L402.3411113456558,399.66479667357504 M402.3411113456558,399.66479667357504 L402.4882373785439,399.8230562720696 M402.4882373785439,399.8230562720696 L402.5400957180749,399.9880366856308 M402.5400957180749,399.9880366856308 L402.4943471213218,400.1534222003689 M402.4943471213218,400.1534222003689 L402.35240072500227,400.3128354356437 M402.35240072500227,400.3128354356437 L402.1194133279969,400.4600855923177 M402.1194133279969,400.4600855923177 L401.8041372955529,400.58941578414846 M401.8041372955529,400.58941578414846 L401.41861541296214,400.6957393482959 M401.41861541296214,400.6957393482959 L400.97773014590746,400.7748531729337 M400.97773014590746,400.7748531729337 L400.4986219630404,400.8236172247717 M400.4986219630404,400.8236172247717 L400,400.8400907535152 M400,400.8400907535152 L399.5013780369596,400.8236172247717 M399.5013780369596,400.8236172247717 L399.02226985409254,400.7748531729337 M399.02226985409254,400.7748531729337 L398.5813845870378,400.6957393482959 M398.5813845870378,400.6957393482959 L398.19586270444705,400.58941578414846 M401.7881715183394,399.3919556705647 L402.10466299492725,399.5192491998692 M402.10466299492725,399.5192491998692 L402.3411113975557,399.664772775622 M402.3411113975557,399.664772775622 L402.4882374337704,399.8230323494857 M402.4882374337704,399.8230323494857 L402.5400957745215,399.9880127373788 M402.5400957745215,399.9880127373788 L402.49434717681976,400.1533982263946 M402.49434717681976,400.1533982263946 L402.35240077740394,400.31281143688483 M402.35240077740394,400.31281143688483 L402.11941337525997,400.46006157067256 M402.11941337525997,400.46006157067256 L401.8041373358239,400.5893917424083 M401.8041373358239,400.5893917424083 L401.41861544465263,400.69571529003935 M401.41861544465263,400.69571529003935 L400.9777301677617,400.77482910239024 M400.9777301677617,400.77482910239024 L400.49862197418963,400.82359314665564 M400.49862197418963,400.82359314665564 L400,400.8400666728412 M400,400.8400666728412 L399.50137802581037,400.82359314665564 M399.50137802581037,400.82359314665564 L399.0222698322383,400.77482910239024 M399.0222698322383,400.77482910239024 L398.5813845553474,400.69571529003935 M398.5813845553474,400.69571529003935 L398.19586266417616,400.5893917424083" stroke="black"  stroke-width="4"  fill="red"/></svg>